<svg height="20" viewBox="0 0 20 20" width="20" xmlns="http://www.w3.org/2000/svg"><g fill="#fff"><path d="m10 1.82c2.67 0 3 0 4 .06a5.58 5.58 0 0 1 1.81.34 3.06 3.06 0 0 1 1.19.78 3 3 0 0 1 .75 1.15 5.55 5.55 0 0 1 .43 1.85v4c0 2.67 0 3-.06 4a5.58 5.58 0 0 1 -.34 1.81 3.35 3.35 0 0 1 -1.9 1.9 5.39 5.39 0 0 1 -1.82.34 40 40 0 0 1 -4.06.09h-4a5.57 5.57 0 0 1 -1.81-.33 3.08 3.08 0 0 1 -1.19-.72 3 3 0 0 1 -.75-1.09 5.43 5.43 0 0 1 -.34-1.82c-.09-1.18-.09-1.51-.09-4.18s0-3 .06-4a5.58 5.58 0 0 1 .34-1.81 3.06 3.06 0 0 1 .78-1.19 3 3 0 0 1 1.15-.75 5.66 5.66 0 0 1 1.85-.34 38.6 38.6 0 0 1 4-.09m0-1.82c-2.73 0-3 0-4.13.06a7.38 7.38 0 0 0 -2.42.47 4.84 4.84 0 0 0 -1.77 1.15 4.84 4.84 0 0 0 -1.15 1.77 7.38 7.38 0 0 0 -.47 2.42c-.06 1.13-.06 1.4-.06 4.13s0 3.05.06 4.13a7.38 7.38 0 0 0 .47 2.42 4.84 4.84 0 0 0 1.15 1.77 4.84 4.84 0 0 0 1.77 1.15 7.38 7.38 0 0 0 2.42.47c1.13.06 1.4.06 4.13.06s3.05 0 4.13-.06a7.38 7.38 0 0 0 2.42-.47 5.12 5.12 0 0 0 2.92-2.92 7.38 7.38 0 0 0 .47-2.42c.06-1.08.06-1.4.06-4.13s0-3-.06-4.13a7.38 7.38 0 0 0 -.47-2.42 4.84 4.84 0 0 0 -1.15-1.77 4.84 4.84 0 0 0 -1.77-1.15 7.38 7.38 0 0 0 -2.42-.47c-1.08-.06-1.4-.06-4.13-.06z"/><path d="m10 4.86a5.14 5.14 0 1 0 5.14 5.14 5.14 5.14 0 0 0 -5.14-5.14zm0 8.48a3.34 3.34 0 1 1 3.34-3.34 3.35 3.35 0 0 1 -3.34 3.34z"/><circle cx="15.34" cy="4.66" r="1.2"/></g></svg>