<svg xmlns="http://www.w3.org/2000/svg" width="20" height="20" viewBox="0 0 20 20"><defs><style>.cls-1{fill:#fff;}</style></defs><g id="レイヤー_2" data-name="レイヤー 2"><g id="レイヤー_1-2" data-name="レイヤー 1"><g id="レイヤー_2-2" data-name="レイヤー 2"><g id="Logo"><path class="cls-1" d="M10,1.82c2.67,0,3,0,4,.06a5.58,5.58,0,0,1,1.81.34A3.06,3.06,0,0,1,17,3a3,3,0,0,1,.75,1.15A5.55,5.55,0,0,1,18.18,6v4c0,2.67,0,3-.06,4a5.58,5.58,0,0,1-.34,1.81,3.35,3.35,0,0,1-1.9,1.9,5.39,5.39,0,0,1-1.82.34,40,40,0,0,1-4.06.09H6a5.57,5.57,0,0,1-1.81-.33A3.08,3.08,0,0,1,3,17.09,3,3,0,0,1,2.25,16a5.43,5.43,0,0,1-.34-1.82C1.82,13,1.82,12.67,1.82,10s0-3,.06-4a5.58,5.58,0,0,1,.34-1.81A3.06,3.06,0,0,1,3,3a3,3,0,0,1,1.15-.75A5.66,5.66,0,0,1,6,1.91a38.6,38.6,0,0,1,4-.09M10,0C7.27,0,7,0,5.87.06A7.38,7.38,0,0,0,3.45.53,4.84,4.84,0,0,0,1.68,1.68,4.84,4.84,0,0,0,.53,3.45,7.38,7.38,0,0,0,.06,5.87C0,7,0,7.27,0,10s0,3.05.06,4.13a7.38,7.38,0,0,0,.47,2.42,4.84,4.84,0,0,0,1.15,1.77,4.84,4.84,0,0,0,1.77,1.15,7.38,7.38,0,0,0,2.42.47C7,20,7.27,20,10,20s3.05,0,4.13-.06a7.38,7.38,0,0,0,2.42-.47,5.12,5.12,0,0,0,2.92-2.92,7.38,7.38,0,0,0,.47-2.42C20,13.05,20,12.73,20,10s0-3-.06-4.13a7.38,7.38,0,0,0-.47-2.42,4.84,4.84,0,0,0-1.15-1.77A4.84,4.84,0,0,0,16.55.53,7.38,7.38,0,0,0,14.13.06C13.05,0,12.73,0,10,0Z"/><path class="cls-1" d="M10,4.86A5.14,5.14,0,1,0,15.14,10h0A5.14,5.14,0,0,0,10,4.86Zm0,8.48A3.34,3.34,0,1,1,13.34,10h0A3.35,3.35,0,0,1,10,13.34Z"/><circle class="cls-1" cx="15.34" cy="4.66" r="1.2"/></g></g></g></g></svg>